<?xml version="1.0" standalone="no"?>
<!DOCTYPE svg PUBLIC "-//W3C//DTD SVG 20010904//EN"
 "http://www.w3.org/TR/2001/REC-SVG-20010904/DTD/svg10.dtd">
<svg version="1.0" xmlns="http://www.w3.org/2000/svg"
 width="512.000000pt" height="512.000000pt" viewBox="0 0 512.000000 512.000000"
 preserveAspectRatio="xMidYMid meet">
<metadata>
Created by potrace 1.16, written by Peter Selinger 2001-2019
</metadata>
<g transform="translate(0.000000,512.000000) scale(0.100000,-0.100000)"
fill="#000000" stroke="none">
<path d="M341 4465 c-127 -36 -239 -131 -299 -255 -32 -67 -37 -85 -40 -174
-5 -120 14 -201 68 -284 232 -358 768 -263 866 154 52 222 -77 462 -293 544
-76 29 -225 36 -302 15z"/>
<path d="M1620 4461 c-121 -39 -210 -107 -270 -207 -169 -281 -11 -646 308
-713 37 -8 496 -11 1550 -11 1631 0 1548 -3 1663 56 64 32 138 100 180 165 92
143 94 353 5 503 -33 56 -111 132 -172 166 -109 63 -19 60 -1689 59 -1429 0
-1523 -1 -1575 -18z"/>
<path d="M401 3030 c-71 -11 -135 -36 -199 -78 -70 -46 -117 -102 -161 -192
-35 -74 -36 -77 -36 -200 0 -123 1 -126 36 -200 76 -157 197 -246 367 -270
312 -44 583 232 533 543 -42 259 -281 435 -540 397z"/>
<path d="M1678 3029 c-178 -26 -335 -171 -383 -354 -71 -273 119 -548 403
-586 50 -6 592 -9 1557 -7 l1480 3 64 23 c134 48 218 124 280 252 35 74 36 77
36 200 0 123 -1 126 -36 200 -62 128 -146 204 -280 252 l-64 23 -1500 1 c-825
1 -1526 -2 -1557 -7z"/>
<path d="M353 1575 c-119 -32 -216 -103 -283 -207 -54 -83 -73 -164 -68 -284
3 -89 8 -107 40 -174 63 -128 175 -222 309 -256 84 -22 212 -15 292 16 215 81
345 323 293 544 -63 266 -327 430 -583 361z"/>
<path d="M1630 1572 c-302 -79 -443 -435 -280 -706 61 -102 157 -174 279 -210
49 -14 206 -16 1571 -16 1664 0 1575 -3 1684 60 150 85 236 236 236 411 0 228
-137 407 -357 464 -50 13 -259 15 -1563 14 -1383 0 -1510 -2 -1570 -17z"/>
</g>
</svg>
