<?xml version="1.0" standalone="no"?>
<!DOCTYPE svg PUBLIC "-//W3C//DTD SVG 20010904//EN"
 "http://www.w3.org/TR/2001/REC-SVG-20010904/DTD/svg10.dtd">
<svg version="1.0" xmlns="http://www.w3.org/2000/svg"
 width="512.000000pt" height="512.000000pt" viewBox="0 0 512.000000 512.000000"
 preserveAspectRatio="xMidYMid meet">
<metadata>
Created by potrace 1.16, written by Peter Selinger 2001-2019
</metadata>
<g transform="translate(0.000000,512.000000) scale(0.100000,-0.100000)"
fill="#000000" stroke="none">
<path d="M850 4693 c-179 -30 -335 -162 -402 -339 -22 -58 -23 -68 -26 -610
-3 -611 -2 -630 60 -746 63 -118 172 -210 295 -248 62 -19 92 -20 627 -20 442
0 572 3 612 14 168 45 315 192 360 360 11 40 14 170 14 612 0 535 -1 565 -20
627 -38 123 -130 232 -248 295 -113 60 -132 62 -717 60 -291 0 -541 -3 -555
-5z m1065 -439 c43 -17 45 -37 45 -549 l0 -487 -29 -29 -29 -29 -487 0 c-512
0 -532 2 -549 45 -3 9 -6 239 -6 511 l0 495 25 24 24 25 495 0 c272 0 502 -3
511 -6z"/>
<path d="M3116 4684 c-171 -42 -316 -178 -366 -343 -20 -65 -21 -89 -18 -652
l3 -586 42 -84 c50 -100 127 -182 215 -229 112 -60 111 -60 724 -60 535 0 565
1 627 20 167 52 302 199 342 375 14 58 15 146 13 619 -3 540 -4 552 -26 610
-56 149 -169 262 -318 318 -58 22 -66 23 -619 25 -460 1 -571 -1 -619 -13z
m1119 -449 l25 -24 0 -495 c0 -272 -3 -502 -6 -511 -17 -43 -37 -45 -549 -45
l-487 0 -29 29 -29 29 0 487 c0 409 2 491 15 515 8 15 20 30 27 33 7 3 237 6
511 6 l498 1 24 -25z"/>
<path d="M768 2367 c-167 -57 -293 -197 -333 -372 -14 -58 -15 -146 -13 -619
3 -540 4 -552 26 -610 56 -149 169 -262 318 -318 58 -22 68 -23 610 -26 611
-3 630 -2 746 60 118 63 210 172 248 295 19 62 20 92 20 627 0 442 -3 572 -14
612 -45 168 -192 315 -360 360 -40 11 -170 14 -616 14 -563 -1 -565 -1 -632
-23z m1163 -436 l29 -29 0 -487 c0 -512 -2 -532 -45 -549 -9 -3 -239 -6 -511
-6 l-495 0 -24 25 -25 24 0 499 c0 524 -1 515 45 540 14 8 174 11 508 12 l489
0 29 -29z"/>
<path d="M3099 2376 c-135 -38 -255 -140 -322 -275 l-42 -84 -3 -586 c-3 -563
-2 -587 18 -652 51 -168 198 -303 375 -344 58 -14 146 -15 619 -13 542 3 552
4 610 26 81 30 144 72 203 135 59 63 86 106 115 183 22 58 23 70 26 610 3 611
2 630 -60 746 -63 118 -172 210 -295 248 -62 19 -91 20 -632 19 -423 -1 -578
-4 -612 -13z m1120 -431 c16 -8 31 -22 35 -30 3 -9 6 -239 6 -511 l0 -495 -25
-24 -24 -25 -495 0 c-272 0 -502 3 -511 6 -43 17 -45 37 -45 549 l0 487 29 29
29 29 487 0 c407 0 491 -2 514 -15z"/>
</g>
</svg>
